#N canvas 3 0 1366 725 12;
#X obj 117 250 random 127;
#X obj 191 250 random 127;
#X obj 265 250 random 127;
#X obj 339 250 random 127;
#X obj 711 250 random 127;
#X obj 785 250 random 127;
#X obj 860 250 random 127;
#X obj 933 250 random 127;
#X obj 414 250 random 127;
#X obj 488 250 random 127;
#X obj 562 250 random 127;
#X obj 636 250 random 127;
#X obj 1008 250 random 127;
#X obj 1082 250 random 127;
#X obj 1156 250 random 127;
#X obj 1230 250 random 127;
#X obj 244 269 pack f f f f f f f f f f f f f f f f;
#X obj 1230 54 bng 50 250 50 0 empty empty empty 17 7 0 10 #ffffff
#000000 #000000;
#X msg 244 288 \$1 \$2 \$3 \$4 \$5 \$6 \$7 \$8 \$9 \$10 \$11 \$12 \$13
\$14 \$15 \$16;
#X obj 244 350 array set sequencer;
#N canvas 0 50 450 250 (subpatch) 0;
#X array sequencer 16 float 3;
#A 0 2 78 2 56 113 94 56 116 2 37 121 24 73 110 8 105;
#X coords 0 127 16 0 400 250 1 0 0;
#X restore 691 321 graph;
#X obj 117 116 metro 0.25 150 permin;
#X text 50 72 click me!;
#X floatatom 288 71 5 0 0 0 - - - 0;
#X obj 118 141 s boom;
#X obj 1068 35 r boom;
#X obj 117 54 tgl 50 0 empty empty empty 17 7 0 10 #fcfcfc #000000
#000000 0 1;
#X msg 381 319 0 0 0 0 0 0 0 0 0 0 0 0 0 0 0 0;
#X connect 0 0 16 0;
#X connect 1 0 16 4;
#X connect 2 0 16 8;
#X connect 3 0 16 12;
#X connect 4 0 16 1;
#X connect 5 0 16 5;
#X connect 6 0 16 9;
#X connect 7 0 16 13;
#X connect 8 0 16 2;
#X connect 9 0 16 6;
#X connect 10 0 16 10;
#X connect 11 0 16 14;
#X connect 12 0 16 3;
#X connect 13 0 16 7;
#X connect 14 0 16 11;
#X connect 15 0 16 15;
#X connect 16 0 18 0;
#X connect 17 0 0 0;
#X connect 17 0 1 0;
#X connect 17 0 2 0;
#X connect 17 0 3 0;
#X connect 17 0 8 0;
#X connect 17 0 9 0;
#X connect 17 0 10 0;
#X connect 17 0 11 0;
#X connect 17 0 4 0;
#X connect 17 0 5 0;
#X connect 17 0 6 0;
#X connect 17 0 7 0;
#X connect 17 0 12 0;
#X connect 17 0 13 0;
#X connect 17 0 14 0;
#X connect 17 0 15 0;
#X connect 18 0 19 0;
#X connect 21 0 24 0;
#X connect 23 0 21 1;
#X connect 25 0 17 0;
#X connect 26 0 21 0;
#X connect 27 0 19 0;
